<?xml version="1.0" encoding="utf-8"?>
<!-- Generator: Adobe Illustrator 27.5.0, SVG Export Plug-In . SVG Version: 6.00 Build 0)  -->
<svg version="1.1" xmlns="http://www.w3.org/2000/svg" xmlns:xlink="http://www.w3.org/1999/xlink" x="0px" y="0px"
	 viewBox="0 0 500 500" style="enable-background:new 0 0 500 500;" xml:space="preserve">
<g id="Background_Complete">
	<g>
		<rect x="416.779" y="398.494" style="fill:#EBEBEB;" width="33.122" height="0.25"/>
		<rect x="322.527" y="401.208" style="fill:#EBEBEB;" width="8.693" height="0.25"/>
		<rect x="396.586" y="389.208" style="fill:#EBEBEB;" width="19.192" height="0.25"/>
		<rect x="52.459" y="390.888" style="fill:#EBEBEB;" width="43.193" height="0.25"/>
		<rect x="104.556" y="390.888" style="fill:#EBEBEB;" width="6.333" height="0.25"/>
		<rect x="131.471" y="395.111" style="fill:#EBEBEB;" width="93.676" height="0.25"/>
		<path style="fill:#EBEBEB;" d="M237.014,337.8H43.915c-3.147,0-5.708-2.561-5.708-5.708V60.66c0-3.147,2.561-5.708,5.708-5.708
			h193.099c3.146,0,5.707,2.561,5.707,5.708v271.432C242.721,335.239,240.16,337.8,237.014,337.8z M43.915,55.203
			c-3.01,0-5.458,2.448-5.458,5.458v271.432c0,3.01,2.448,5.458,5.458,5.458h193.099c3.009,0,5.457-2.448,5.457-5.458V60.66
			c0-3.009-2.448-5.458-5.457-5.458H43.915z"/>
		<path style="fill:#EBEBEB;" d="M453.31,337.8H260.212c-3.147,0-5.707-2.561-5.707-5.708V60.66c0-3.147,2.561-5.708,5.707-5.708
			H453.31c3.148,0,5.708,2.561,5.708,5.708v271.432C459.019,335.239,456.458,337.8,453.31,337.8z M260.212,55.203
			c-3.009,0-5.457,2.448-5.457,5.458v271.432c0,3.01,2.448,5.458,5.457,5.458H453.31c3.01,0,5.458-2.448,5.458-5.458V60.66
			c0-3.009-2.448-5.458-5.458-5.458H260.212z"/>
		<rect y="382.398" style="fill:#EBEBEB;" width="500" height="0.25"/>
	</g>
	<g>
		<g>
			<g>
				<g>
					<path style="fill:#E0E0E0;" d="M203.121,319.612h-120.6V101.304l1.229-1.18c15.926-15.306,36.907-23.737,59.071-23.737
						c0.001,0-0.001,0,0,0c22.165,0.001,43.144,8.43,59.071,23.737l1.229,1.181V319.612z M90.521,311.612h104.6V104.737
						c-14.271-13.136-32.777-20.35-52.3-20.35c-19.523,0-38.028,7.214-52.3,20.35V311.612z"/>
				</g>
			</g>
			<polygon style="fill:#F5F5F5;" points="196.636,140.166 196.636,134.166 145.821,134.166 145.821,83.351 139.821,83.351 
				139.821,134.166 89.005,134.166 89.005,140.166 139.821,140.166 139.821,194.982 89.005,194.982 89.005,200.982 139.821,200.982 
				139.821,255.797 89.005,255.797 89.005,261.797 139.821,261.797 139.821,312.613 145.821,312.613 145.821,261.797 
				196.636,261.797 196.636,255.797 145.821,255.797 145.821,200.982 196.636,200.982 196.636,194.982 145.821,194.982 
				145.821,140.166 			"/>
			<g>
				<path style="fill:#EBEBEB;" d="M207.121,323.612h-128.6V99.671l1.171-1.172c34.81-34.808,91.448-34.808,126.257,0l1.171,1.172
					V323.612z M86.521,315.612h112.6V103.007c-31.384-30.161-81.216-30.162-112.6,0V315.612z"/>
			</g>
		</g>
		<g>
			<g>
				<g>
					<path style="fill:#E0E0E0;" d="M415.684,319.612h-120.6V101.304l1.229-1.18c15.926-15.306,36.907-23.737,59.071-23.737
						c0.001,0-0.001,0,0.001,0c22.165,0.001,43.144,8.43,59.071,23.737l1.228,1.181V319.612z M303.084,311.612h104.6V104.737
						c-14.271-13.136-32.777-20.35-52.3-20.35c-19.523,0-38.028,7.214-52.3,20.35V311.612z"/>
				</g>
			</g>
			<polygon style="fill:#F5F5F5;" points="409.2,140.166 409.2,134.166 358.384,134.166 358.384,83.351 352.384,83.351 
				352.384,134.166 301.569,134.166 301.569,140.166 352.384,140.166 352.384,194.982 301.569,194.982 301.569,200.982 
				352.384,200.982 352.384,255.797 301.569,255.797 301.569,261.797 352.384,261.797 352.384,312.613 358.384,312.613 
				358.384,261.797 409.2,261.797 409.2,255.797 358.384,255.797 358.384,200.982 409.2,200.982 409.2,194.982 358.384,194.982 
				358.384,140.166 			"/>
			<g>
				<path style="fill:#EBEBEB;" d="M419.684,323.612h-128.6V99.671l1.171-1.172c34.809-34.808,91.448-34.808,126.257,0l1.171,1.172
					V323.612z M299.084,315.612h112.6V103.007c-31.384-30.161-81.216-30.162-112.6,0V315.612z"/>
			</g>
		</g>
		<g>
			<g>
				<path style="fill:#EBEBEB;" d="M251.178,364.684h20.082c0.729,0,1.319,0.591,1.319,1.319v3.459c0,0.728-0.59,1.319-1.319,1.319
					h-20.082c-0.729,0-1.319-0.591-1.319-1.319v-3.459C249.859,365.274,250.449,364.684,251.178,364.684z"/>
				<g>
					<path style="fill:#F5F5F5;" d="M227.348,364.684h20.082c0.728,0,1.319,0.591,1.319,1.319v3.459
						c0,0.728-0.591,1.319-1.319,1.319h-20.082c-0.729,0-1.319-0.591-1.319-1.319v-3.459
						C226.029,365.274,226.62,364.684,227.348,364.684z"/>
					<path style="fill:#F5F5F5;" d="M237.962,357.128h20.082c0.728,0,1.319,0.59,1.319,1.319v3.459c0,0.728-0.591,1.319-1.319,1.319
						h-20.082c-0.729,0-1.319-0.591-1.319-1.319v-3.459C236.643,357.719,237.233,357.128,237.962,357.128z"/>
					<path style="fill:#F0F0F0;" d="M214.182,357.128h20.082c0.729,0,1.319,0.59,1.319,1.319v3.459c0,0.728-0.59,1.319-1.319,1.319
						h-20.082c-0.729,0-1.319-0.591-1.319-1.319v-3.459C212.863,357.719,213.453,357.128,214.182,357.128z"/>
				</g>
			</g>
			<g>
				<path style="fill:#F0F0F0;" d="M82.513,360.906h20.082c0.728,0,1.319,0.59,1.319,1.319v3.459c0,0.728-0.591,1.319-1.319,1.319
					H82.513c-0.728,0-1.319-0.591-1.319-1.319v-3.459C81.194,361.496,81.784,360.906,82.513,360.906z"/>
				<g>
					<path style="fill:#F5F5F5;" d="M58.683,360.906h20.082c0.728,0,1.319,0.59,1.319,1.319v3.459c0,0.728-0.59,1.319-1.319,1.319
						H58.683c-0.729,0-1.319-0.591-1.319-1.319v-3.459C57.364,361.496,57.955,360.906,58.683,360.906z"/>
					<path style="fill:#F5F5F5;" d="M69.297,353.35h20.082c0.729,0,1.319,0.591,1.319,1.319v3.459c0,0.729-0.59,1.319-1.319,1.319
						H69.297c-0.728,0-1.319-0.59-1.319-1.319v-3.459C67.978,353.941,68.568,353.35,69.297,353.35z"/>
					<path style="fill:#F5F5F5;" d="M45.516,353.35h20.082c0.729,0,1.319,0.591,1.319,1.319v3.459c0,0.729-0.59,1.319-1.319,1.319
						H45.516c-0.729,0-1.319-0.59-1.319-1.319v-3.459C44.197,353.941,44.788,353.35,45.516,353.35z"/>
				</g>
			</g>
			<g>
				<g>
					<path style="fill:#F5F5F5;" d="M68.148,72.888H88.23c0.729,0,1.319,0.591,1.319,1.319v3.459c0,0.729-0.59,1.319-1.319,1.319
						H68.148c-0.729,0-1.319-0.59-1.319-1.319v-3.459C66.829,73.479,67.42,72.888,68.148,72.888z"/>
					<path style="fill:#F5F5F5;" d="M78.761,65.333h20.082c0.729,0,1.319,0.59,1.319,1.319v3.459c0,0.728-0.59,1.319-1.319,1.319
						H78.761c-0.728,0-1.319-0.591-1.319-1.319v-3.459C77.442,65.923,78.033,65.333,78.761,65.333z"/>
					<path style="fill:#F0F0F0;" d="M54.981,65.333h20.082c0.729,0,1.319,0.59,1.319,1.319v3.459c0,0.728-0.59,1.319-1.319,1.319
						H54.981c-0.728,0-1.319-0.591-1.319-1.319v-3.459C53.662,65.923,54.253,65.333,54.981,65.333z"/>
				</g>
			</g>
			<g>
				<path style="fill:#F0F0F0;" d="M428.142,79.715h20.082c0.728,0,1.319,0.591,1.319,1.319v3.459c0,0.729-0.591,1.319-1.319,1.319
					h-20.082c-0.728,0-1.319-0.59-1.319-1.319v-3.459C426.823,80.305,427.413,79.715,428.142,79.715z"/>
				<g>
					<path style="fill:#F5F5F5;" d="M414.925,72.159h20.082c0.729,0,1.319,0.59,1.319,1.319v3.459c0,0.728-0.59,1.319-1.319,1.319
						h-20.082c-0.728,0-1.319-0.591-1.319-1.319v-3.459C413.606,72.75,414.197,72.159,414.925,72.159z"/>
				</g>
			</g>
			<g>
				<g>
					<rect x="297.033" y="323.435" style="fill:#F5F5F5;" width="59.832" height="59.832"/>
					<rect x="356.865" y="323.435" style="fill:#EBEBEB;" width="36.752" height="59.832"/>
					<g>
						<polygon style="fill:#E0E0E0;" points="371.567,323.435 371.567,346.08 372.517,345.216 374.197,346.266 375.666,345.216 
							377.556,346.266 379.55,345.216 380.809,346.266 382.273,345.495 382.273,323.435 						"/>
						<polygon style="opacity:0.7;fill:#E0E0E0;" points="371.567,323.435 371.567,346.08 372.517,345.216 374.197,346.266 
							375.666,345.216 377.556,346.266 379.55,345.216 380.809,346.266 382.273,345.495 382.273,323.435 						"/>
					</g>
				</g>
				<g>
					<rect x="377.116" y="347.639" style="fill:#F5F5F5;" width="35.627" height="35.627"/>
					<rect x="412.743" y="347.639" style="fill:#E6E6E6;" width="21.884" height="35.627"/>
					<polygon style="fill:#E6E6E6;" points="405.936,357.655 370.309,357.655 377.116,347.639 412.743,347.639 					"/>
					<polygon style="fill:#F5F5F5;" points="419.19,357.655 441.074,357.655 434.627,347.639 412.743,347.639 					"/>
				</g>
				<g>
					<rect x="260.576" y="347.639" style="fill:#F5F5F5;" width="35.627" height="35.627"/>
					<rect x="296.203" y="347.639" style="fill:#E6E6E6;" width="21.884" height="35.627"/>
					<polygon style="fill:#E6E6E6;" points="289.396,338.697 253.769,338.697 260.576,347.639 296.203,347.639 					"/>
					<polygon style="fill:#EBEBEB;" points="302.65,338.697 324.534,338.697 318.087,347.639 296.203,347.639 					"/>
				</g>
			</g>
		</g>
	</g>
</g>
<g id="Background_Simple" style="display:none;">
	<g style="display:inline;">
		<path style="fill:#407BFF;" d="M107.099,335.951c-37.726-0.769-63.483-72.311-43.86-121.65
			c26.74-67.237,151.421-106.467,228.778-106.37c40.595,0.051,104.98,0,140.996,80.542c19.072,42.651,16.448,165.296-44.284,181.561
			c-96.057,25.725-95.922-70.283-134.025-74.626C200.412,289.218,191.908,337.68,107.099,335.951z"/>
		<path style="opacity:0.9;fill:#FFFFFF;" d="M107.099,335.951c-37.726-0.769-63.483-72.311-43.86-121.65
			c26.74-67.237,151.421-106.467,228.778-106.37c40.595,0.051,104.98,0,140.996,80.542c19.072,42.651,16.448,165.296-44.284,181.561
			c-96.057,25.725-95.922-70.283-134.025-74.626C200.412,289.218,191.908,337.68,107.099,335.951z"/>
	</g>
</g>
<g id="Shadow">
	<ellipse id="_x3C_Path_x3E__1_" style="fill:#F5F5F5;" cx="245.178" cy="412.391" rx="193.889" ry="11.323"/>
</g>
<g id="Process">
	<g>
		<g>
			<path style="fill:#407BFF;" d="M318.393,229.289H185.791c-1.684,0-3.054,1.37-3.054,3.054v3.936c0,1.684,1.37,3.054,3.054,3.054
				h132.602c1.684,0,3.054-1.37,3.054-3.054v-3.936C321.447,230.659,320.077,229.289,318.393,229.289z"/>
			<path style="opacity:0.8;fill:#FFFFFF;" d="M318.393,229.289H185.791c-1.684,0-3.054,1.37-3.054,3.054v3.936
				c0,1.684,1.37,3.054,3.054,3.054h132.602c1.684,0,3.054-1.37,3.054-3.054v-3.936
				C321.447,230.659,320.077,229.289,318.393,229.289z"/>
		</g>
		<g>
			<g>
				<path style="fill:#263238;" d="M318.393,244.811H185.791c-4.705,0-8.532-3.827-8.532-8.532v-3.936
					c0-4.705,3.827-8.532,8.532-8.532h132.602c4.705,0,8.533,3.827,8.533,8.532v3.936
					C326.925,240.984,323.097,244.811,318.393,244.811z M185.791,225.637c-3.698,0-6.706,3.008-6.706,6.706v3.936
					c0,3.698,3.008,6.706,6.706,6.706h132.602c3.698,0,6.707-3.008,6.707-6.706v-3.936c0-3.698-3.008-6.706-6.707-6.706H185.791z"/>
			</g>
			<g style="opacity:0.3;">
				<path style="fill:#FFFFFF;" d="M318.393,244.811H185.791c-4.705,0-8.532-3.827-8.532-8.532v-3.936
					c0-4.705,3.827-8.532,8.532-8.532h132.602c4.705,0,8.533,3.827,8.533,8.532v3.936
					C326.925,240.984,323.097,244.811,318.393,244.811z M185.791,225.637c-3.698,0-6.706,3.008-6.706,6.706v3.936
					c0,3.698,3.008,6.706,6.706,6.706h132.602c3.698,0,6.707-3.008,6.707-6.706v-3.936c0-3.698-3.008-6.706-6.707-6.706H185.791z"/>
			</g>
		</g>
		<path style="fill:#407BFF;" d="M287.909,229.289H185.791c-1.684,0-3.054,1.37-3.054,3.054v3.936c0,1.684,1.37,3.054,3.054,3.054
			h92.075L287.909,229.289z"/>
		<g>
			<path style="fill:#407BFF;" d="M380.391,244.811h-39.876c-0.72,0-1.408-0.296-1.904-0.818l-7.538-7.941
				c-0.967-1.018-0.961-2.618,0.014-3.629l7.527-7.809c0.495-0.513,1.177-0.803,1.89-0.803h39.888c1.45,0,2.625,1.175,2.625,2.625
				v15.75C383.016,243.636,381.841,244.811,380.391,244.811z"/>
			<g>
				<path style="fill:#FFFFFF;" d="M352.435,228.09v1.878l-4.647,10.634h-3.146l4.487-10.153h-4.147v2.038h-2.574v-4.397H352.435z"
					/>
				<path style="fill:#FFFFFF;" d="M363.07,238.243v2.359h-9.455v-1.876l4.826-4.559c0.512-0.487,0.857-0.908,1.036-1.26
					c0.179-0.352,0.268-0.7,0.268-1.046c0-0.5-0.17-0.884-0.51-1.152c-0.34-0.269-0.837-0.403-1.492-0.403
					c-0.548,0-1.043,0.105-1.484,0.313c-0.441,0.21-0.81,0.522-1.108,0.938l-2.109-1.359c0.488-0.726,1.161-1.295,2.02-1.706
					c0.857-0.412,1.841-0.617,2.949-0.617c0.93,0,1.743,0.151,2.439,0.455c0.697,0.304,1.239,0.733,1.627,1.287
					c0.387,0.554,0.58,1.206,0.58,1.958c0,0.679-0.142,1.316-0.428,1.911c-0.287,0.596-0.84,1.276-1.663,2.038l-2.878,2.717H363.07z
					"/>
				<path style="fill:#FFFFFF;" d="M365.098,233.909c-0.577-0.625-0.866-1.462-0.866-2.511c0-1.049,0.289-1.887,0.866-2.512
					c0.578-0.625,1.326-0.938,2.244-0.938c0.917,0,1.662,0.313,2.234,0.938c0.572,0.626,0.857,1.463,0.857,2.512
					c0,1.049-0.286,1.885-0.857,2.511c-0.572,0.625-1.317,0.938-2.234,0.938C366.424,234.847,365.677,234.534,365.098,233.909z
					 M368.298,232.882c0.232-0.335,0.348-0.829,0.348-1.484c0-0.656-0.116-1.15-0.348-1.484c-0.233-0.333-0.551-0.5-0.956-0.5
					c-0.393,0-0.709,0.169-0.948,0.509c-0.239,0.339-0.357,0.831-0.357,1.475c0,0.643,0.118,1.135,0.357,1.473
					c0.238,0.34,0.554,0.511,0.948,0.511C367.747,233.382,368.066,233.215,368.298,232.882z M374.795,228.09h2.127l-8.544,12.512
					h-2.126L374.795,228.09z M374.232,240.326c-0.471-0.281-0.837-0.682-1.099-1.207c-0.262-0.524-0.393-1.132-0.393-1.822
					s0.131-1.299,0.393-1.824c0.262-0.524,0.628-0.926,1.099-1.206c0.471-0.279,1.004-0.42,1.599-0.42
					c0.918,0,1.665,0.313,2.244,0.938c0.577,0.625,0.867,1.463,0.867,2.512c0,1.049-0.29,1.885-0.867,2.51
					c-0.578,0.626-1.326,0.938-2.244,0.938C375.236,240.745,374.703,240.605,374.232,240.326z M376.788,238.77
					c0.233-0.339,0.348-0.831,0.348-1.473c0-0.645-0.116-1.136-0.348-1.475c-0.232-0.34-0.551-0.509-0.956-0.509
					c-0.393,0-0.709,0.167-0.947,0.5c-0.238,0.333-0.358,0.828-0.358,1.484c0,0.654,0.119,1.149,0.358,1.484
					c0.238,0.333,0.554,0.5,0.947,0.5C376.237,239.28,376.556,239.11,376.788,238.77z"/>
			</g>
		</g>
	</g>
</g>
<g id="Gear_3">
	<g>
		<g>
			<g>
				<path style="fill:#407BFF;" d="M424.672,137.398l-8.754,0.145c-1.108-2.381-2.423-4.644-3.92-6.773l4.503-7.51
					c-2.316-2.86-4.926-5.469-7.785-7.785l-7.509,4.503c-2.128-1.497-4.392-2.811-6.773-3.92l0.145-8.754
					c-3.389-1.304-6.943-2.274-10.629-2.851l-4.258,7.665c-1.289-0.113-2.591-0.182-3.91-0.182c-1.318,0-2.62,0.069-3.91,0.182
					l-4.258-7.665c-3.686,0.577-7.24,1.547-10.629,2.851l0.145,8.754c-2.381,1.108-4.645,2.423-6.773,3.92l-7.51-4.503
					c-2.86,2.316-5.469,4.925-7.785,7.785l4.503,7.51c-1.497,2.128-2.811,4.392-3.92,6.773l-8.754-0.145
					c-1.304,3.389-2.274,6.943-2.851,10.629l7.665,4.258c-0.113,1.289-0.182,2.592-0.182,3.91c0,1.319,0.069,2.621,0.182,3.91
					l-7.665,4.258c0.577,3.686,1.547,7.24,2.851,10.629l8.754-0.145c1.108,2.381,2.423,4.644,3.92,6.772l-4.503,7.51
					c2.316,2.859,4.925,5.469,7.785,7.785l7.51-4.503c2.128,1.497,4.392,2.811,6.773,3.92l-0.145,8.754
					c3.389,1.304,6.943,2.274,10.629,2.851l4.258-7.665c1.289,0.113,2.592,0.182,3.91,0.182c1.319,0,2.621-0.069,3.91-0.182
					l4.258,7.665c3.686-0.577,7.24-1.547,10.629-2.851l-0.145-8.754c2.381-1.108,4.645-2.423,6.773-3.92l7.509,4.503
					c2.859-2.316,5.469-4.925,7.785-7.785l-4.503-7.51c1.497-2.128,2.811-4.392,3.92-6.772l8.754,0.145
					c1.304-3.389,2.274-6.943,2.851-10.629l-7.665-4.258c0.113-1.289,0.182-2.591,0.182-3.91c0-1.319-0.069-2.621-0.182-3.91
					l7.665-4.258C426.946,144.34,425.976,140.786,424.672,137.398z"/>
				<path style="opacity:0.4;fill:#FFFFFF;" d="M424.672,137.398l-8.754,0.145c-1.108-2.381-2.423-4.644-3.92-6.773l4.503-7.51
					c-2.316-2.86-4.926-5.469-7.785-7.785l-7.509,4.503c-2.128-1.497-4.392-2.811-6.773-3.92l0.145-8.754
					c-3.389-1.304-6.943-2.274-10.629-2.851l-4.258,7.665c-1.289-0.113-2.591-0.182-3.91-0.182c-1.318,0-2.62,0.069-3.91,0.182
					l-4.258-7.665c-3.686,0.577-7.24,1.547-10.629,2.851l0.145,8.754c-2.381,1.108-4.645,2.423-6.773,3.92l-7.51-4.503
					c-2.86,2.316-5.469,4.925-7.785,7.785l4.503,7.51c-1.497,2.128-2.811,4.392-3.92,6.773l-8.754-0.145
					c-1.304,3.389-2.274,6.943-2.851,10.629l7.665,4.258c-0.113,1.289-0.182,2.592-0.182,3.91c0,1.319,0.069,2.621,0.182,3.91
					l-7.665,4.258c0.577,3.686,1.547,7.24,2.851,10.629l8.754-0.145c1.108,2.381,2.423,4.644,3.92,6.772l-4.503,7.51
					c2.316,2.859,4.925,5.469,7.785,7.785l7.51-4.503c2.128,1.497,4.392,2.811,6.773,3.92l-0.145,8.754
					c3.389,1.304,6.943,2.274,10.629,2.851l4.258-7.665c1.289,0.113,2.592,0.182,3.91,0.182c1.319,0,2.621-0.069,3.91-0.182
					l4.258,7.665c3.686-0.577,7.24-1.547,10.629-2.851l-0.145-8.754c2.381-1.108,4.645-2.423,6.773-3.92l7.509,4.503
					c2.859-2.316,5.469-4.925,7.785-7.785l-4.503-7.51c1.497-2.128,2.811-4.392,3.92-6.772l8.754,0.145
					c1.304-3.389,2.274-6.943,2.851-10.629l-7.665-4.258c0.113-1.289,0.182-2.591,0.182-3.91c0-1.319-0.069-2.621-0.182-3.91
					l7.665-4.258C426.946,144.34,425.976,140.786,424.672,137.398z"/>
			</g>
			<circle style="opacity:0.2;" cx="375.782" cy="156.195" r="26.259"/>
			<g>
				<g>
					<path style="fill:#407BFF;" d="M389.753,161.648c1.247-1.355,1.254-3.523,0.016-4.887c-0.023-0.028-0.044-0.057-0.068-0.084
						c-0.014-0.014-0.023-0.031-0.037-0.045c-2.744-2.744-5.488-5.488-8.232-8.232c-3.303-3.303-8.43,1.822-5.126,5.126
						c0.681,0.681,1.363,1.363,2.044,2.044c-4.66,0-9.319,0-13.979,0c-4.664,0-4.672,7.249,0,7.249c4.66,0,9.32,0,13.979,0
						c-0.681,0.681-1.363,1.363-2.044,2.044c-3.303,3.303,1.822,8.43,5.126,5.126c2.744-2.744,5.488-5.488,8.232-8.232
						c0.017-0.017,0.027-0.037,0.044-0.054C389.724,161.685,389.738,161.666,389.753,161.648z"/>
					<path style="opacity:0.4;" d="M389.753,161.648c1.247-1.355,1.254-3.523,0.016-4.887c-0.023-0.028-0.044-0.057-0.068-0.084
						c-0.014-0.014-0.023-0.031-0.037-0.045c-2.744-2.744-5.488-5.488-8.232-8.232c-3.303-3.303-8.43,1.822-5.126,5.126
						c0.681,0.681,1.363,1.363,2.044,2.044c-4.66,0-9.319,0-13.979,0c-4.664,0-4.672,7.249,0,7.249c4.66,0,9.32,0,13.979,0
						c-0.681,0.681-1.363,1.363-2.044,2.044c-3.303,3.303,1.822,8.43,5.126,5.126c2.744-2.744,5.488-5.488,8.232-8.232
						c0.017-0.017,0.027-0.037,0.044-0.054C389.724,161.685,389.738,161.666,389.753,161.648z"/>
				</g>
				<path style="fill:#407BFF;" d="M389.753,158.648c1.247-1.355,1.254-3.523,0.016-4.887c-0.023-0.028-0.044-0.057-0.068-0.084
					c-0.014-0.014-0.023-0.031-0.037-0.045c-2.744-2.744-5.488-5.488-8.232-8.232c-3.303-3.303-8.43,1.822-5.126,5.126
					c0.681,0.681,1.363,1.363,2.044,2.044c-4.66,0-9.319,0-13.979,0c-4.664,0-4.672,7.249,0,7.249c4.66,0,9.32,0,13.979,0
					c-0.681,0.681-1.363,1.363-2.044,2.044c-3.303,3.303,1.822,8.43,5.126,5.126c2.744-2.744,5.488-5.488,8.232-8.232
					c0.017-0.017,0.027-0.037,0.044-0.054C389.724,158.685,389.738,158.666,389.753,158.648z"/>
			</g>
		</g>
		<g>
			<g>
				<path style="fill:#407BFF;" d="M389.162,100.773c2.234,0.545,4.427,1.211,6.587,2c0.545,0.199,0.78-0.67,0.239-0.868
					c-2.16-0.79-4.353-1.456-6.587-2C388.839,99.768,388.599,100.635,389.162,100.773L389.162,100.773z"/>
			</g>
			<g>
				<path style="fill:#407BFF;" d="M334.985,116.241c11.027-10.862,25.32-16.819,40.797-17.036c0.579-0.008,0.58-0.908,0-0.9
					c-15.708,0.221-30.238,6.273-41.433,17.3C333.935,116.011,334.572,116.648,334.985,116.241L334.985,116.241z"/>
			</g>
		</g>
	</g>
</g>
<g id="Gear_2">
	<g>
		<g>
			<g>
				<path style="fill:#407BFF;" d="M315.234,166.606c0.552-2.118,0.926-4.24,1.138-6.352l9.846-2.534
					c0.039-1.247,0.042-2.491-0.011-3.726l-9.896-2.407c-0.487-4.323-1.651-8.503-3.417-12.398l7.262-7.12
					c-0.59-1.096-1.22-2.17-1.888-3.22l-9.76,2.859c-2.537-3.443-5.616-6.501-9.15-9.037l2.733-9.811
					c-1.052-0.649-2.139-1.254-3.246-1.829l-7.021,7.354c-1.946-0.847-3.98-1.557-6.098-2.11c-2.118-0.552-4.24-0.926-6.352-1.137
					l-2.534-9.847c-1.247-0.038-2.491-0.042-3.726,0.011l-2.407,9.896c-4.323,0.487-8.503,1.651-12.398,3.417l-7.12-7.262
					c-1.096,0.59-2.17,1.22-3.22,1.888l2.86,9.76c-3.443,2.537-6.501,5.616-9.037,9.15l-9.81-2.733
					c-0.649,1.052-1.254,2.139-1.829,3.246l7.355,7.021c-0.847,1.946-1.557,3.98-2.11,6.098c-0.552,2.118-0.926,4.24-1.138,6.352
					l-9.847,2.534c-0.038,1.247-0.042,2.491,0.011,3.726l9.896,2.407c0.487,4.323,1.651,8.503,3.417,12.398l-7.262,7.12
					c0.59,1.096,1.219,2.17,1.888,3.22l9.76-2.86c2.537,3.443,5.616,6.501,9.15,9.037l-2.733,9.811
					c1.052,0.65,2.139,1.254,3.246,1.829l7.021-7.354c1.946,0.847,3.98,1.557,6.098,2.109c2.118,0.553,4.24,0.926,6.351,1.138
					l2.534,9.846c1.247,0.038,2.491,0.042,3.726-0.011l2.407-9.896c4.323-0.487,8.503-1.651,12.398-3.417l7.12,7.262
					c1.096-0.59,2.17-1.22,3.22-1.888l-2.86-9.76c3.444-2.537,6.501-5.616,9.037-9.15l9.81,2.733
					c0.65-1.052,1.254-2.139,1.829-3.246l-7.354-7.02C313.972,170.758,314.682,168.724,315.234,166.606z"/>
				<path style="opacity:0.2;fill:#FFFFFF;" d="M315.234,166.606c0.552-2.118,0.926-4.24,1.138-6.352l9.846-2.534
					c0.039-1.247,0.042-2.491-0.011-3.726l-9.896-2.407c-0.487-4.323-1.651-8.503-3.417-12.398l7.262-7.12
					c-0.59-1.096-1.22-2.17-1.888-3.22l-9.76,2.859c-2.537-3.443-5.616-6.501-9.15-9.037l2.733-9.811
					c-1.052-0.649-2.139-1.254-3.246-1.829l-7.021,7.354c-1.946-0.847-3.98-1.557-6.098-2.11c-2.118-0.552-4.24-0.926-6.352-1.137
					l-2.534-9.847c-1.247-0.038-2.491-0.042-3.726,0.011l-2.407,9.896c-4.323,0.487-8.503,1.651-12.398,3.417l-7.12-7.262
					c-1.096,0.59-2.17,1.22-3.22,1.888l2.86,9.76c-3.443,2.537-6.501,5.616-9.037,9.15l-9.81-2.733
					c-0.649,1.052-1.254,2.139-1.829,3.246l7.355,7.021c-0.847,1.946-1.557,3.98-2.11,6.098c-0.552,2.118-0.926,4.24-1.138,6.352
					l-9.847,2.534c-0.038,1.247-0.042,2.491,0.011,3.726l9.896,2.407c0.487,4.323,1.651,8.503,3.417,12.398l-7.262,7.12
					c0.59,1.096,1.219,2.17,1.888,3.22l9.76-2.86c2.537,3.443,5.616,6.501,9.15,9.037l-2.733,9.811
					c1.052,0.65,2.139,1.254,3.246,1.829l7.021-7.354c1.946,0.847,3.98,1.557,6.098,2.109c2.118,0.553,4.24,0.926,6.351,1.138
					l2.534,9.846c1.247,0.038,2.491,0.042,3.726-0.011l2.407-9.896c4.323-0.487,8.503-1.651,12.398-3.417l7.12,7.262
					c1.096-0.59,2.17-1.22,3.22-1.888l-2.86-9.76c3.444-2.537,6.501-5.616,9.037-9.15l9.81,2.733
					c0.65-1.052,1.254-2.139,1.829-3.246l-7.354-7.02C313.972,170.758,314.682,168.724,315.234,166.606z"/>
			</g>
			<circle style="opacity:0.3;" cx="275.316" cy="156.195" r="26.145"/>
			<g>
				<g>
					<path style="fill:#407BFF;" d="M287.891,161.252c1.122-1.219,1.128-3.17,0.014-4.398c-0.021-0.025-0.04-0.051-0.061-0.076
						c-0.012-0.013-0.02-0.028-0.033-0.041c-2.47-2.469-4.939-4.939-7.408-7.408c-2.973-2.973-7.587,1.639-4.613,4.613
						c0.613,0.613,1.227,1.226,1.84,1.84c-4.194,0-8.387,0-12.581,0c-4.198,0-4.205,6.524,0,6.524c4.194,0,8.388,0,12.581,0
						c-0.613,0.613-1.226,1.226-1.84,1.84c-2.973,2.973,1.639,7.587,4.613,4.613c2.469-2.469,4.939-4.939,7.408-7.408
						c0.015-0.015,0.025-0.033,0.039-0.049C287.864,161.286,287.877,161.269,287.891,161.252z"/>
					<path style="opacity:0.4;" d="M287.891,161.252c1.122-1.219,1.128-3.17,0.014-4.398c-0.021-0.025-0.04-0.051-0.061-0.076
						c-0.012-0.013-0.02-0.028-0.033-0.041c-2.47-2.469-4.939-4.939-7.408-7.408c-2.973-2.973-7.587,1.639-4.613,4.613
						c0.613,0.613,1.227,1.226,1.84,1.84c-4.194,0-8.387,0-12.581,0c-4.198,0-4.205,6.524,0,6.524c4.194,0,8.388,0,12.581,0
						c-0.613,0.613-1.226,1.226-1.84,1.84c-2.973,2.973,1.639,7.587,4.613,4.613c2.469-2.469,4.939-4.939,7.408-7.408
						c0.015-0.015,0.025-0.033,0.039-0.049C287.864,161.286,287.877,161.269,287.891,161.252z"/>
				</g>
				<path style="fill:#407BFF;" d="M287.891,158.552c1.122-1.219,1.128-3.17,0.014-4.399c-0.021-0.025-0.04-0.051-0.061-0.076
					c-0.012-0.013-0.02-0.028-0.033-0.041c-2.47-2.469-4.939-4.939-7.408-7.408c-2.973-2.973-7.587,1.639-4.613,4.613
					c0.613,0.613,1.227,1.226,1.84,1.84c-4.194,0-8.387,0-12.581,0c-4.198,0-4.205,6.524,0,6.524c4.194,0,8.388,0,12.581,0
					c-0.613,0.613-1.226,1.226-1.84,1.84c-2.973,2.973,1.639,7.587,4.613,4.613c2.469-2.469,4.939-4.939,7.408-7.408
					c0.015-0.015,0.025-0.033,0.039-0.049C287.864,158.586,287.877,158.569,287.891,158.552z"/>
			</g>
		</g>
		<g>
			<path style="fill:#407BFF;" d="M275.316,210.594c-13.351-0.199-25.735-4.874-35.845-13.603c-0.437-0.377-1.076,0.257-0.636,0.636
				c10.293,8.888,22.883,13.664,36.482,13.867C275.896,211.502,275.896,210.602,275.316,210.594L275.316,210.594z"/>
		</g>
		<g>
			<path style="fill:#407BFF;" d="M290.896,208.314c-3.319,0.973-6.685,1.644-10.125,2.01c-0.57,0.061-0.576,0.961,0,0.9
				c3.52-0.375,6.966-1.047,10.364-2.043C291.69,209.019,291.454,208.15,290.896,208.314L290.896,208.314z"/>
		</g>
	</g>
</g>
<g id="Gear_1">
	<g>
		<g>
			<g>
				<path style="fill:#407BFF;" d="M221.915,139.913l-7.583,0.125c-0.96-2.062-2.099-4.023-3.395-5.866l3.9-6.505
					c-2.006-2.477-4.266-4.737-6.743-6.743l-6.505,3.901c-1.843-1.296-3.804-2.435-5.866-3.395l0.126-7.583
					c-2.935-1.129-6.014-1.97-9.207-2.47l-3.688,6.639c-1.117-0.098-2.245-0.157-3.387-0.157c-1.142,0-2.27,0.06-3.387,0.157
					l-3.688-6.639c-3.193,0.5-6.271,1.34-9.207,2.469l0.126,7.583c-2.062,0.96-4.023,2.099-5.866,3.395l-6.505-3.901
					c-2.477,2.006-4.737,4.266-6.743,6.743l3.9,6.505c-1.296,1.843-2.435,3.804-3.395,5.866l-7.583-0.125
					c-1.129,2.935-1.969,6.014-2.469,9.207l6.639,3.688c-0.098,1.117-0.158,2.245-0.158,3.387s0.059,2.27,0.158,3.387l-6.639,3.688
					c0.5,3.193,1.34,6.271,2.469,9.206l7.583-0.125c0.96,2.062,2.099,4.023,3.395,5.866l-3.9,6.505
					c2.006,2.477,4.266,4.737,6.743,6.743l6.505-3.9c1.843,1.296,3.804,2.435,5.866,3.395l-0.126,7.583
					c2.936,1.129,6.014,1.97,9.207,2.47l3.688-6.639c1.117,0.098,2.245,0.157,3.387,0.157c1.142,0,2.27-0.06,3.387-0.157
					l3.688,6.639c3.193-0.5,6.271-1.34,9.207-2.47l-0.126-7.583c2.062-0.96,4.023-2.099,5.866-3.395l6.505,3.9
					c2.477-2.006,4.738-4.266,6.743-6.743l-3.9-6.505c1.296-1.843,2.435-3.804,3.395-5.866l7.583,0.125
					c1.129-2.935,1.97-6.014,2.47-9.207l-6.639-3.688c0.098-1.117,0.157-2.245,0.157-3.387s-0.059-2.27-0.157-3.387l6.639-3.688
					C223.885,145.927,223.045,142.849,221.915,139.913z"/>
				<path style="opacity:0.3;fill:#FFFFFF;" d="M221.915,139.913l-7.583,0.125c-0.96-2.062-2.099-4.023-3.395-5.866l3.9-6.505
					c-2.006-2.477-4.266-4.737-6.743-6.743l-6.505,3.901c-1.843-1.296-3.804-2.435-5.866-3.395l0.126-7.583
					c-2.935-1.129-6.014-1.97-9.207-2.47l-3.688,6.639c-1.117-0.098-2.245-0.157-3.387-0.157c-1.142,0-2.27,0.06-3.387,0.157
					l-3.688-6.639c-3.193,0.5-6.271,1.34-9.207,2.469l0.126,7.583c-2.062,0.96-4.023,2.099-5.866,3.395l-6.505-3.901
					c-2.477,2.006-4.737,4.266-6.743,6.743l3.9,6.505c-1.296,1.843-2.435,3.804-3.395,5.866l-7.583-0.125
					c-1.129,2.935-1.969,6.014-2.469,9.207l6.639,3.688c-0.098,1.117-0.158,2.245-0.158,3.387s0.059,2.27,0.158,3.387l-6.639,3.688
					c0.5,3.193,1.34,6.271,2.469,9.206l7.583-0.125c0.96,2.062,2.099,4.023,3.395,5.866l-3.9,6.505
					c2.006,2.477,4.266,4.737,6.743,6.743l6.505-3.9c1.843,1.296,3.804,2.435,5.866,3.395l-0.126,7.583
					c2.936,1.129,6.014,1.97,9.207,2.47l3.688-6.639c1.117,0.098,2.245,0.157,3.387,0.157c1.142,0,2.27-0.06,3.387-0.157
					l3.688,6.639c3.193-0.5,6.271-1.34,9.207-2.47l-0.126-7.583c2.062-0.96,4.023-2.099,5.866-3.395l6.505,3.9
					c2.477-2.006,4.738-4.266,6.743-6.743l-3.9-6.505c1.296-1.843,2.435-3.804,3.395-5.866l7.583,0.125
					c1.129-2.935,1.97-6.014,2.47-9.207l-6.639-3.688c0.098-1.117,0.157-2.245,0.157-3.387s-0.059-2.27-0.157-3.387l6.639-3.688
					C223.885,145.927,223.045,142.849,221.915,139.913z"/>
			</g>
			<circle style="opacity:0.4;" cx="179.568" cy="156.195" r="31.204"/>
			<g>
				<g>
					<path style="fill:#407BFF;" d="M190.12,160.857c0.997-1.083,1.003-2.818,0.013-3.91c-0.018-0.022-0.035-0.045-0.054-0.067
						c-0.011-0.011-0.018-0.025-0.029-0.036c-2.195-2.195-4.39-4.39-6.585-6.585c-2.642-2.642-6.744,1.457-4.101,4.101
						c0.545,0.545,1.09,1.09,1.635,1.635c-3.728,0-7.456,0-11.183,0c-3.732,0-3.738,5.799,0,5.799c3.728,0,7.456,0,11.183,0
						c-0.545,0.545-1.09,1.09-1.635,1.635c-2.643,2.642,1.457,6.744,4.101,4.101c2.195-2.195,4.39-4.39,6.585-6.585
						c0.013-0.013,0.022-0.03,0.035-0.043C190.097,160.887,190.108,160.872,190.12,160.857z"/>
					<path style="opacity:0.4;" d="M190.12,160.857c0.997-1.083,1.003-2.818,0.013-3.91c-0.018-0.022-0.035-0.045-0.054-0.067
						c-0.011-0.011-0.018-0.025-0.029-0.036c-2.195-2.195-4.39-4.39-6.585-6.585c-2.642-2.642-6.744,1.457-4.101,4.101
						c0.545,0.545,1.09,1.09,1.635,1.635c-3.728,0-7.456,0-11.183,0c-3.732,0-3.738,5.799,0,5.799c3.728,0,7.456,0,11.183,0
						c-0.545,0.545-1.09,1.09-1.635,1.635c-2.643,2.642,1.457,6.744,4.101,4.101c2.195-2.195,4.39-4.39,6.585-6.585
						c0.013-0.013,0.022-0.03,0.035-0.043C190.097,160.887,190.108,160.872,190.12,160.857z"/>
				</g>
				<path style="fill:#407BFF;" d="M190.12,158.457c0.997-1.083,1.003-2.818,0.013-3.91c-0.018-0.022-0.035-0.045-0.054-0.067
					c-0.011-0.011-0.018-0.025-0.029-0.036c-2.195-2.195-4.39-4.39-6.585-6.585c-2.642-2.642-6.744,1.457-4.101,4.101
					c0.545,0.545,1.09,1.09,1.635,1.635c-3.728,0-7.456,0-11.183,0c-3.732,0-3.738,5.799,0,5.799c3.728,0,7.456,0,11.183,0
					c-0.545,0.545-1.09,1.09-1.635,1.635c-2.643,2.642,1.457,6.744,4.101,4.101c2.195-2.195,4.39-4.39,6.585-6.585
					c0.013-0.013,0.022-0.03,0.035-0.043C190.097,158.487,190.108,158.472,190.12,158.457z"/>
			</g>
		</g>
		<g>
			<g>
				<path style="fill:#407BFF;" d="M140.133,128.232c9.392-12.666,23.675-19.968,39.435-20.218c0.579-0.009,0.58-0.909,0-0.9
					c-16.105,0.255-30.622,7.731-40.213,20.663C139.011,128.243,139.792,128.693,140.133,128.232L140.133,128.232z"/>
			</g>
			<g>
				<path style="fill:#407BFF;" d="M185.933,108.424c2.093,0.286,4.157,0.696,6.2,1.232c0.561,0.147,0.8-0.721,0.239-0.868
					c-2.043-0.536-4.107-0.946-6.2-1.232C185.606,107.478,185.361,108.345,185.933,108.424L185.933,108.424z"/>
			</g>
		</g>
	</g>
</g>
<g id="Character">
	<g>
		<path style="fill:#CE7A63;" d="M150.618,203.962c0,0,9.704,20.239,13.94,26.081c3.674,5.069,17.155,17.54,17.155,17.54
			l3.721-0.404c1.174-0.128,2.305,0.481,2.847,1.53l0.42,0.815c0.169,0.327,0.398,0.618,0.677,0.857l0.667,0.573
			c0.981,0.843,1.274,2.24,0.712,3.406l-0.505,1.049c-0.387,0.803-1.126,1.379-1.998,1.558l-3.992,0.82
			c-1.035,0.213-2.103-0.163-2.776-0.978l-3.399-4.113c0,0-17.931-13.152-22.538-18.88c-3.711-4.614-10.962-20.994-10.962-20.994
			L150.618,203.962z"/>
		<g>
			<path style="fill:#407BFF;" d="M202.916,303.94c0-15.778-12.79-28.568-28.568-28.568c-15.778,0-28.568,12.79-28.568,28.568
				H202.916z"/>
			<path style="opacity:0.5;fill:#FFFFFF;" d="M202.916,303.94c0-15.778-12.79-28.568-28.568-28.568
				c-15.778,0-28.568,12.79-28.568,28.568H202.916z"/>
		</g>
		<g style="opacity:0.3;">
			<path d="M195.899,294.711c-1.082,0.465-2.316,0.004-2.883-1.029c-3.728-6.781-10.848-11.06-18.668-11.06
				c-7.82,0-14.94,4.279-18.668,11.06c-0.568,1.032-1.801,1.494-2.883,1.029l0,0c-1.201-0.517-1.735-1.958-1.11-3.107
				c4.499-8.263,13.151-13.482,22.661-13.482c9.509,0,18.161,5.219,22.661,13.482C197.633,292.752,197.1,294.194,195.899,294.711
				L195.899,294.711z"/>
		</g>
		<g>
			<g>
				<path style="fill:#263238;" d="M198.049,219.371c-6.351,21.258-12.703,42.516-19.054,63.774c0.981,0.22,1.944,0.502,2.876,0.855
					c5.288-17.699,10.576-35.398,15.864-53.098c1.069-3.578,2.138-7.156,3.207-10.735
					C201.496,218.315,198.601,217.523,198.049,219.371z"/>
			</g>
			<g style="opacity:0.5;">
				<path style="fill:#FFFFFF;" d="M198.049,219.371c-6.351,21.258-12.703,42.516-19.054,63.774c0.981,0.22,1.944,0.502,2.876,0.855
					c5.288-17.699,10.576-35.398,15.864-53.098c1.069-3.578,2.138-7.156,3.207-10.735
					C201.496,218.315,198.601,217.523,198.049,219.371z"/>
			</g>
		</g>
		<g>
			<path style="fill:#263238;" d="M187.796,266.787c4.623-15.473,9.246-30.946,13.869-46.419c0.831-2.781-3.511-3.969-4.339-1.196
				c-4.623,15.473-9.246,30.946-13.869,46.419C182.626,268.371,186.968,269.56,187.796,266.787L187.796,266.787z"/>
		</g>
		<g>
			<path style="fill:#407BFF;" d="M213.395,408.316h-78.007v-96.506c0-4.347,3.524-7.871,7.871-7.871h62.266
				c4.347,0,7.871,3.524,7.871,7.871V408.316z"/>
			<path style="opacity:0.7;fill:#FFFFFF;" d="M213.395,408.316h-78.007v-96.506c0-4.347,3.524-7.871,7.871-7.871h62.266
				c4.347,0,7.871,3.524,7.871,7.871V408.316z"/>
		</g>
		<polygon style="fill:#CE7A63;" points="176.388,386.168 181.388,405.168 189.82,402.835 186.221,382.501 		"/>
		<g>
			<path style="fill:#407BFF;" d="M191.472,400.785c-0.092,0.005-0.177-0.045-0.218-0.127c-0.04-0.083-0.023-0.183,0.042-0.248
				c0.116-0.116,2.745-2.743,4.347-2.74c0.297-0.003,0.585,0.109,0.801,0.314c0.274,0.217,0.381,0.584,0.267,0.915
				c-0.238,0.577-1.329,1.093-2.439,1.395C193.355,400.54,192.418,400.704,191.472,400.785z M192.079,400.315
				c1.717-0.247,3.965-0.874,4.22-1.568c0.04-0.088,0.061-0.23-0.168-0.451c-0.129-0.133-0.311-0.201-0.495-0.183
				c-0.142-0.001-0.283,0.018-0.419,0.058C194.046,398.682,192.981,399.409,192.079,400.315z"/>
			<path style="fill:#407BFF;" d="M191.357,400.804c-0.075-0.024-0.132-0.087-0.147-0.165c-0.019-0.115-0.436-2.588,0.446-3.832
				c0.252-0.365,0.641-0.611,1.079-0.682c0.598-0.1,0.86,0.145,0.948,0.381c0.464,0.952-1.154,3.472-2.092,4.236
				c-0.024,0.021-0.054,0.032-0.086,0.032C191.461,400.802,191.408,400.812,191.357,400.804z M192.702,396.564
				c-0.268,0.07-0.502,0.235-0.658,0.465c-0.456,0.951-0.61,2.019-0.44,3.06c0.928-0.956,1.922-2.853,1.702-3.443
				c-0.031-0.05-0.097-0.196-0.486-0.125L192.702,396.564L192.702,396.564z"/>
			<path style="fill:#263238;" d="M190.22,399.784l-9.743,2.655c-0.367,0.1-0.616,0.441-0.599,0.821l0.398,8.406
				c0.03,0.746,0.659,1.327,1.405,1.297c0.096-0.004,0.191-0.018,0.284-0.042c3.496-1.018,6.566-2.061,10.941-3.246
				c5.161-1.404,4.02-0.43,10.11-1.997c3.669-0.948,3.206-5.285,1.6-5.067c-7.337,1.04-8.657-0.902-12.086-2.695
				C191.802,399.59,190.98,399.543,190.22,399.784z"/>
		</g>
		<polygon style="fill:#CE7A63;" points="82.97,381.531 74.929,399.456 82.956,402.936 92.925,384.853 		"/>
		<g>
			<path style="fill:#407BFF;" d="M85.528,402.379c-0.074-0.054-0.11-0.146-0.09-0.236c0.021-0.09,0.097-0.156,0.189-0.166
				c0.163-0.018,3.859-0.411,5.103,0.598c0.234,0.184,0.386,0.452,0.426,0.747c0.077,0.341-0.071,0.694-0.367,0.88
				c-0.548,0.3-1.721,0.015-2.774-0.446C87.147,403.37,86.315,402.909,85.528,402.379z M86.296,402.395
				c1.491,0.886,3.635,1.809,4.269,1.43c0.087-0.043,0.192-0.141,0.153-0.456c-0.016-0.184-0.116-0.351-0.271-0.453
				c-0.11-0.09-0.231-0.163-0.362-0.218C88.853,402.359,87.567,402.256,86.296,402.395z"/>
			<path style="fill:#407BFF;" d="M85.427,402.321c-0.044-0.066-0.048-0.151-0.01-0.221c0.058-0.101,1.286-2.288,2.753-2.702
				c0.425-0.126,0.883-0.073,1.268,0.147c0.529,0.298,0.579,0.653,0.499,0.892c-0.237,1.032-3.079,1.977-4.289,1.982
				c-0.031,0.001-0.063-0.009-0.087-0.029C85.509,402.384,85.461,402.36,85.427,402.321z M89.137,399.867
				c-0.253-0.114-0.539-0.133-0.804-0.052c-0.952,0.453-1.742,1.188-2.264,2.105c1.322-0.161,3.287-1.013,3.487-1.61
				c0.007-0.058,0.048-0.214-0.3-0.402L89.137,399.867L89.137,399.867z"/>
			<path style="fill:#263238;" d="M85.183,400.814l-9.249-4.053c-0.349-0.153-0.757-0.044-0.982,0.263l-4.97,6.792
				c-0.445,0.599-0.32,1.446,0.279,1.891c0.077,0.057,0.16,0.106,0.247,0.146c3.36,1.403,6.404,2.52,10.553,4.345
				c4.898,2.148,3.398,2.19,9.121,4.796c3.45,1.567,5.814-2.099,4.428-2.938c-6.363-3.799-6.171-6.139-7.712-9.688
				C86.536,401.656,85.925,401.103,85.183,400.814z"/>
		</g>
		<g>
			<path style="fill:#263238;" d="M154.789,164.772c0,0,6.849-2.106,5.128-5.229c-1.494-2.712-4.025,0.553-4.025,0.553
				L154.789,164.772z"/>
			<path style="opacity:0.6;" d="M154.789,164.772c0,0,6.849-2.106,5.128-5.229c-1.494-2.712-4.025,0.553-4.025,0.553
				L154.789,164.772z"/>
		</g>
		<polygon style="fill:#CE7A63;" points="149.869,187.718 148.541,194.064 139.107,190.837 141.933,183.558 		"/>
		<path style="opacity:0.2;" d="M149.208,190.878c-2.49-1.526-2.752-3.669-2.752-3.669l1.557-0.465l1.857,0.973L149.208,190.878z"/>
		<path style="fill:#263238;" d="M160.325,171.645c0.052,0.567-0.205,1.052-0.584,1.082c-0.379,0.029-0.757-0.429-0.793-0.982
			c-0.036-0.553,0.204-1.052,0.585-1.076C159.915,170.645,160.266,171.079,160.325,171.645z"/>
		<path style="fill:#BA4D3C;" d="M159.238,173.416l3.217,4.217c0,0-1.401,1.174-3.546,0.576L159.238,173.416z"/>
		<path style="fill:#CE7A63;" d="M137.717,171.08c0.361,7.568,0.347,10.783,4.186,14.768c5.898,4.114,15.199,4.04,17.151-3.456
			c1.761-6.744,0.877-17.96-6.64-21.22c-5.359-2.321-11.565,0.025-13.862,5.241C137.907,167.879,137.621,169.477,137.717,171.08z"/>
		<path style="fill:#263238;" d="M159.501,166.604c-0.1,0.022-0.181,0.091-0.219,0.183c-0.247,0.71-0.831,1.256-1.567,1.466
			c-0.162,0.034-0.265,0.189-0.231,0.349c0.039,0.16,0.201,0.262,0.365,0.231c0.939-0.246,1.689-0.929,2.005-1.827
			c0.06-0.153-0.02-0.327-0.177-0.388l-0.001,0C159.62,166.598,159.559,166.593,159.501,166.604z"/>
		<g>
			<path style="fill:#407BFF;" d="M134.186,193.156l1.918-2.222c1.188-1.376,3.1-1.876,4.81-1.259l6.513,2.351
				c1.286,0.464,2.281,1.501,2.693,2.805l0.737,2.333L134.186,193.156z"/>
			<path style="opacity:0.5;fill:#FFFFFF;" d="M134.186,193.156l1.918-2.222c1.188-1.376,3.1-1.876,4.81-1.259l6.513,2.351
				c1.286,0.464,2.281,1.501,2.693,2.805l0.737,2.333L134.186,193.156z"/>
		</g>
		<path style="fill:#263238;" d="M148.122,250.444c0,0,22.335,55.868,27.932,75.224c4.555,15.751,13.765,64.333,13.765,64.333
			l-14.015,3.566c0,0-12.176-47.709-17.468-63.232c-4.48-13.141-16.012-39.224-25.563-49.3c-1.614-1.703-6.14-3.613-7.699-5.366
			c-3.217-3.618-6.922-12.932-7.936-17.667c-0.463-2.159,0-8.833,0-8.833L148.122,250.444z"/>
		<path style="fill:#263238;" d="M148.122,250.444c0,0-5.347,16.942-7.651,22.391c-1.246,2.948-4.358,8.563-5.583,11.52
			c-5.737,13.845-14.834,42.695-20.073,56.486c-5.156,13.573-24.344,52.727-24.344,52.727l-12.667-5.566
			c0,0,16.241-39.257,20.667-52.699c4.306-13.078,10.742-39.985,12.468-53.645c0.533-4.217,0.294-12.758,0.698-16.989
			c0.373-3.901,2.333-15.5,2.333-15.5L148.122,250.444z"/>
		<path style="fill:#407BFF;" d="M113.63,250.534l36.633,5.108l8.418-50.675c0.617-3.714-1.703-7.285-5.348-8.231l-16.232-4.211
			c-5.974-1.55-12.028,2.223-13.268,8.269L113.63,250.534z"/>
		<polygon style="opacity:0.2;" points="155.367,224.91 156.987,215.163 150.31,209.495 		"/>
		<polygon style="fill:#407BFF;" points="77.805,384.543 75.93,388.918 90.555,395.668 92.68,391.543 		"/>
		<polygon style="fill:#407BFF;" points="174.06,391.106 175.388,395.677 190.974,391.611 189.998,387.074 		"/>
		<path style="fill:#263238;" d="M153.886,175.947c0,0,1.99-2.559,0.541-6.69c-1.45-4.13,6.972-12.752,1.632-15.293
			c-3.334-1.586-4.312,2.871-4.312,2.871s-2.043-3.196-4.975-1.865c-1.706,0.774-1.248,3.034-1.248,3.034s-12.065,1.91-9.554,13.089
			c0,0-1.22,7.486,4.483,13.029c0,0,4.347-1.589,7.929,0.641C148.381,184.762,148.823,180.149,153.886,175.947z"/>
		<path style="fill:#263238;" d="M137.077,172.817c0,0-3.788-3.058-4.084-6.202C132.696,163.471,136.026,168.793,137.077,172.817z"
			/>
		<path style="fill:#CE7A63;" d="M153.277,173.141c1.17,1.055,1.869,2.518,1.942,4.064c0.081,2.052-1.917,2.593-3.643,1.619
			c-1.564-0.882-3.471-3.009-2.731-4.879C149.586,172.074,151.832,171.866,153.277,173.141z"/>
		<path style="opacity:0.6;" d="M119.185,264.554c1.458,10.96,8.803,21.694,12.911,26.966c0.99-2.658,1.93-5.084,2.792-7.166
			C122.395,274.224,119.185,264.554,119.185,264.554z"/>
		<path style="fill:#CE7A63;" d="M156.304,200.443c0,0,9.247,16.116,13.728,20.613c3.873,3.887,18.835,12.871,18.835,12.871
			l5.081-0.092c0.836-0.015,1.628,0.371,2.132,1.038l0,0c0.311,0.412,0.737,0.722,1.224,0.892l0.44,0.154
			c1.176,0.411,1.898,1.594,1.726,2.827l-0.305,2.186c-0.139,0.999-0.841,1.828-1.803,2.131l-4.09,1.287
			c-0.856,0.269-1.79,0.081-2.475-0.5l-5.07-4.302c0,0-18.72-8.034-23.66-12.554c-3.704-3.39-10.946-16.84-10.946-16.84
			L156.304,200.443z"/>
		<path style="fill:#407BFF;" d="M157.795,199.141l9.896,12.941l-12.657,7.687l-7.756-13.477c-1.363-2.368-0.761-5.379,1.408-7.041
			l1.47-1.126C152.545,196.295,155.966,196.75,157.795,199.141z"/>
	</g>
</g>
</svg>
